<?xml version="1.0" standalone="no"?>
<!DOCTYPE svg PUBLIC "-//W3C//DTD SVG 20010904//EN"
 "http://www.w3.org/TR/2001/REC-SVG-20010904/DTD/svg10.dtd">
<svg version="1.0" xmlns="http://www.w3.org/2000/svg"
 width="240.000000pt" height="240.000000pt" viewBox="0 0 240.000000 240.000000"
 preserveAspectRatio="xMidYMid meet">
<metadata>
Created by potrace 1.11, written by Peter Selinger 2001-2013
</metadata>
<g transform="translate(0.000000,240.000000) scale(0.100000,-0.100000)"
fill="#000000" stroke="none">
<path d="M1220 2372 c0 -6 -31 -61 -70 -121 -38 -61 -70 -114 -70 -120 0 -7
-19 -20 -40 -26 -12 -3 -67 -16 -85 -19 -93 -18 -234 -85 -345 -164 -72 -52
-230 -206 -230 -226 0 -2 -16 -28 -36 -57 -57 -85 -120 -237 -139 -338 -24
-122 -23 -323 1 -421 3 -14 7 -35 8 -47 1 -12 5 -25 9 -29 4 -4 7 -16 7 -26 0
-10 5 -28 12 -41 24 -47 28 -57 28 -72 0 -8 5 -15 12 -15 6 0 9 -3 5 -6 -3 -3
5 -24 19 -45 13 -21 24 -41 24 -44 0 -11 107 -149 146 -190 32 -33 88 -80 169
-143 53 -40 280 -132 364 -147 138 -24 294 -23 405 1 12 3 32 7 45 10 13 3 48
13 78 24 29 10 53 16 53 13 0 -3 8 1 18 10 9 8 29 19 45 22 15 4 27 11 27 17
0 5 4 7 9 4 5 -4 11 -3 13 1 1 5 21 17 43 28 71 36 196 148 269 240 25 33 50
65 55 71 10 13 86 157 86 164 0 3 4 11 8 18 12 18 47 142 40 142 -3 0 0 7 7
15 7 8 9 15 4 15 -5 0 -2 5 6 10 11 7 11 10 2 10 -9 0 -10 5 -4 18 19 39 21
266 3 362 -7 36 -13 72 -15 80 -2 8 -8 28 -14 43 -7 16 -12 33 -12 39 0 23
-81 179 -127 245 -145 208 -380 366 -619 417 -27 6 -78 45 -64 50 2 0 -9 21
-26 46 -17 25 -44 68 -59 95 -36 62 -65 101 -65 87z"/>
</g>
</svg>
